<svg width="19" height="19" viewBox="0 0 19 19" fill="none" xmlns="http://www.w3.org/2000/svg">
<path d="M17.9338 11.6937L18.9739 6.02308C19.0163 5.79148 19.007 5.55346 18.9464 5.32584C18.8859 5.09823 18.7756 4.88658 18.6235 4.70586C18.4713 4.52514 18.281 4.37976 18.0659 4.28C17.8509 4.18023 17.6163 4.12853 17.3789 4.12854H4.05387L3.70655 2.23399C3.6388 1.86358 3.44197 1.52852 3.15042 1.28732C2.85888 1.04613 2.49115 0.914103 2.11143 0.914307H0.972636C0.714677 0.914307 0.467283 1.0159 0.284879 1.19673C0.102474 1.37757 0 1.62284 0 1.87858C0 2.13432 0.102474 2.37958 0.284879 2.56042C0.467283 2.74125 0.714677 2.84284 0.972636 2.84284H1.84096L3.95677 14.3801C3.96649 14.4327 3.97914 14.4841 3.99364 14.5346C3.6749 14.8542 3.4463 15.2512 3.33064 15.6858C3.21498 16.1204 3.21631 16.5775 3.3345 17.0114C3.4527 17.4453 3.68361 17.8409 4.00421 18.1588C4.32481 18.4766 4.72388 18.7055 5.16159 18.8226C5.5993 18.9398 6.06034 18.941 6.49871 18.8263C6.93707 18.7116 7.33743 18.485 7.65983 18.1689C7.98222 17.8529 8.21538 17.4586 8.33603 17.0253C8.45668 16.5921 8.4606 16.135 8.34741 15.6998H13.0506C12.9153 16.219 12.9472 16.7672 13.1418 17.2676C13.3363 17.7681 13.6838 18.1957 14.1357 18.4906C14.5875 18.7855 15.121 18.933 15.6616 18.9124C16.2021 18.8918 16.7227 18.7042 17.1504 18.3758C17.578 18.0474 17.8915 17.5947 18.0467 17.0809C18.202 16.5672 18.1914 16.0182 18.0164 15.5107C17.8414 15.0033 17.5107 14.5628 17.0706 14.2509C16.6306 13.9389 16.1031 13.7712 15.5622 13.7712H5.82228L5.58642 12.4855H16.9769C17.2047 12.4855 17.4252 12.4063 17.6001 12.2616C17.775 12.1169 17.8931 11.9159 17.9339 11.6937H17.9338ZM6.48424 16.3426C6.48424 16.4697 6.44621 16.594 6.37496 16.6997C6.30371 16.8055 6.20244 16.8879 6.08396 16.9365C5.96547 16.9852 5.8351 16.9979 5.70932 16.9731C5.58353 16.9483 5.468 16.8871 5.37731 16.7972C5.28663 16.7073 5.22487 16.5927 5.19985 16.468C5.17483 16.3433 5.18767 16.2141 5.23675 16.0966C5.28583 15.9791 5.36894 15.8787 5.47557 15.8081C5.5822 15.7375 5.70757 15.6998 5.83582 15.6998C6.00772 15.7 6.17253 15.7678 6.29409 15.8883C6.41564 16.0088 6.48403 16.1722 6.48424 16.3426ZM15.5622 16.9854C15.4339 16.9854 15.3086 16.9477 15.2019 16.8771C15.0953 16.8065 15.0122 16.7061 14.9631 16.5886C14.914 16.4711 14.9012 16.3419 14.9262 16.2172C14.9512 16.0925 15.013 15.9779 15.1037 15.888C15.1944 15.7981 15.3099 15.7369 15.4357 15.7121C15.5615 15.6873 15.6918 15.7 15.8103 15.7487C15.9288 15.7973 16.0301 15.8797 16.1013 15.9855C16.1726 16.0912 16.2106 16.2155 16.2106 16.3426C16.2104 16.513 16.142 16.6764 16.0204 16.7969C15.8989 16.9174 15.7341 16.9852 15.5622 16.9854ZM5.23278 10.557L4.40766 6.05707H16.9903L16.1651 10.557H5.23278Z" fill="#FDFBF8"/>
</svg>
