<svg width="32" height="122" viewBox="0 0 32 122" fill="none" xmlns="http://www.w3.org/2000/svg">
<path d="M-38.1188 121.005L28.146 121.005C29.7306 121.005 31.0271 119.709 31.0271 118.124L31.0271 51.8594C31.0271 50.2748 29.7306 48.9783 28.146 48.9783L-9.30804 48.9783L-9.30804 46.0973C-9.30804 31.8071 2.33152 20.1675 16.6217 20.1675L28.146 20.1675C29.7306 20.1675 31.0271 18.871 31.0271 17.2865L31.0271 2.88104C31.0271 1.29645 29.7306 -3.80336e-05 28.146 -3.78951e-05L10.8595 -3.63839e-05C-17.7496 -3.38828e-05 -40.9999 23.2791 -40.9999 51.8594L-40.9999 118.124C-40.9999 119.709 -39.7034 121.005 -38.1188 121.005Z" fill="#E0EFF6"/>
</svg>
