<svg width="50" height="82" viewBox="0 0 50 82" fill="none" xmlns="http://www.w3.org/2000/svg">
<path d="M2.10843 81.3164L47.4393 81.3164C48.5232 81.3164 49.4102 80.4531 49.4102 79.398L49.4102 35.2753C49.4102 34.2202 48.5232 33.3569 47.4392 33.3569L21.8175 33.357L21.8175 31.4386C21.8175 21.9234 29.7799 14.1732 39.5556 14.1732L47.4392 14.1732C48.5232 14.1732 49.4102 13.3099 49.4102 12.2548L49.4101 2.6629C49.4101 1.60779 48.5232 0.744522 47.4392 0.744522L35.6138 0.744523C16.0427 0.744525 0.137518 16.245 0.13752 35.2753L0.137523 79.398C0.137524 80.4531 1.02443 81.3164 2.10843 81.3164Z" fill="#E0EFF6"/>
</svg>
