<svg width="49" height="82" viewBox="0 0 49 82" fill="none" xmlns="http://www.w3.org/2000/svg">
<path d="M1.01029 81.3164L46.3411 81.3164C47.4251 81.3164 48.312 80.4531 48.312 79.398L48.312 35.2753C48.312 34.2202 47.4251 33.357 46.3411 33.357L20.7193 33.357L20.7193 31.4386C20.7193 21.9234 28.6818 14.1732 38.4575 14.1732L46.3411 14.1732C47.4251 14.1732 48.312 13.3099 48.312 12.2548L48.312 2.66291C48.312 1.6078 47.4251 0.744538 46.3411 0.744538L34.5157 0.744541C14.9446 0.744546 -0.960621 16.245 -0.960619 35.2753L-0.960613 79.398C-0.960613 80.4531 -0.0737038 81.3164 1.01029 81.3164Z" fill="#E0EFF6"/>
</svg>
