<svg width="59" height="122" viewBox="0 0 59 122" fill="none" xmlns="http://www.w3.org/2000/svg">
<path d="M-11.1186 121.005L55.1463 121.005C56.7309 121.005 58.0273 119.709 58.0273 118.124L58.0273 51.8594C58.0273 50.2748 56.7309 48.9783 55.1463 48.9783L17.6922 48.9783L17.6922 46.0973C17.6922 31.8071 29.3318 20.1675 43.6219 20.1675L55.1463 20.1675C56.7308 20.1675 58.0273 18.871 58.0273 17.2865L58.0273 2.88104C58.0273 1.29645 56.7308 -3.80336e-05 55.1463 -3.78951e-05L37.8598 -3.63839e-05C9.25063 -3.38828e-05 -13.9997 23.2791 -13.9997 51.8594L-13.9997 118.124C-13.9997 119.709 -12.7032 121.005 -11.1186 121.005Z" fill="#E0EFF6"/>
</svg>
