<svg width="73" height="122" viewBox="0 0 73 122" fill="none" xmlns="http://www.w3.org/2000/svg">
<path d="M3.19488 121.005L69.4597 121.005C71.0443 121.005 72.3408 119.709 72.3408 118.124L72.3408 51.8594C72.3408 50.2748 71.0443 48.9783 69.4597 48.9783L32.0057 48.9783L32.0057 46.0973C32.0057 31.8071 43.6452 20.1675 57.9354 20.1675L69.4597 20.1675C71.0443 20.1675 72.3408 18.871 72.3408 17.2865L72.3408 2.88104C72.3408 1.29645 71.0443 -3.80336e-05 69.4597 -3.78951e-05L52.1732 -3.63839e-05C23.5641 -3.38828e-05 0.313788 23.2791 0.313791 51.8594L0.313797 118.124C0.313797 119.709 1.61028 121.005 3.19488 121.005Z" fill="#E0EFF6"/>
</svg>
