<svg width="73" height="122" viewBox="0 0 73 122" fill="none" xmlns="http://www.w3.org/2000/svg">
<path d="M2.88112 121.005L69.146 121.005C70.7306 121.005 72.0271 119.709 72.0271 118.124L72.0271 51.8594C72.0271 50.2748 70.7306 48.9783 69.146 48.9783L31.6919 48.9783L31.6919 46.0973C31.6919 31.8071 43.3315 20.1675 57.6216 20.1675L69.146 20.1675C70.7306 20.1675 72.0271 18.871 72.0271 17.2865L72.0271 2.88104C72.0271 1.29645 70.7306 -3.80336e-05 69.146 -3.78951e-05L51.8595 -3.63839e-05C23.2504 -3.38828e-05 2.96035e-05 23.2791 3.2102e-05 51.8594L3.78951e-05 118.124C3.80336e-05 119.709 1.29652 121.005 2.88112 121.005Z" fill="#E0EFF6"/>
</svg>
