<svg width="73" height="122" viewBox="0 0 73 122" fill="none" xmlns="http://www.w3.org/2000/svg">
<path d="M3.19463 121.005L69.4595 121.005C71.0441 121.005 72.3406 119.709 72.3406 118.124L72.3406 51.8594C72.3406 50.2748 71.0441 48.9783 69.4595 48.9783L32.0054 48.9783L32.0054 46.0973C32.0054 31.8071 43.645 20.1675 57.9352 20.1675L69.4595 20.1675C71.0441 20.1675 72.3406 18.871 72.3406 17.2865L72.3406 2.88104C72.3406 1.29645 71.0441 -3.80336e-05 69.4595 -3.78951e-05L52.173 -3.63839e-05C23.5639 -3.38828e-05 0.313544 23.2791 0.313547 51.8594L0.313553 118.124C0.313553 119.709 1.61004 121.005 3.19463 121.005Z" fill="#E0EFF6"/>
</svg>
