<svg width="23" height="22" viewBox="0 0 23 22" fill="none" xmlns="http://www.w3.org/2000/svg">
<path fill-rule="evenodd" clip-rule="evenodd" d="M4.7096 2.38075H21.711C22.0086 2.38075 22.2497 2.62193 22.2497 2.91945V3.45815C22.2419 4.35227 22.0005 5.22881 21.5494 6.00082L19.0175 10.4505C18.4697 11.4352 17.4399 12.0547 16.3132 12.0774H9.60102C9.36815 12.0724 9.13669 12.0398 8.91148 11.9804L7.83407 14.2322H19.5562C19.8537 14.2322 20.0949 14.4734 20.0949 14.7709V15.8483C20.0949 16.1458 19.8537 16.387 19.5562 16.387H6.08868C5.79383 16.3938 5.51809 16.2415 5.36682 15.9884L5.12979 15.5789C5.00522 15.3392 5.00522 15.0538 5.12979 14.814L7.13376 10.8276C7.02432 10.712 6.92686 10.5857 6.84286 10.4505L2.23157 2.38075H1.24036C0.942845 2.38075 0.70166 2.13956 0.70166 1.84204V0.764641C0.70166 0.467124 0.942845 0.225939 1.24036 0.225939H2.23157C3.00447 0.22287 3.71981 0.633986 4.10626 1.30334L4.7096 2.38075ZM7.16601 17.4645C5.97594 17.4645 5.0112 18.4292 5.0112 19.6193C5.0112 20.8093 5.97594 21.7741 7.16601 21.7741C8.35607 21.7741 9.32081 20.8093 9.32081 19.6193C9.32081 18.4292 8.35607 17.4645 7.16601 17.4645ZM20.0949 19.6193C20.0949 20.8093 19.1301 21.7741 17.94 21.7741C16.75 21.7741 15.7852 20.8093 15.7852 19.6193C15.7852 18.4292 16.75 17.4645 17.94 17.4645C19.1301 17.4645 20.0949 18.4292 20.0949 19.6193Z" fill="#07484A"/>
</svg>
