<svg width="24" height="20" viewBox="0 0 24 20" fill="none" xmlns="http://www.w3.org/2000/svg">
<path fill-rule="evenodd" clip-rule="evenodd" d="M23.3333 3.33329H0.666667C0.298477 3.33329 0 3.03482 0 2.66663V1.33329C0 0.965103 0.298477 0.666626 0.666667 0.666626H23.3333C23.7015 0.666626 24 0.965103 24 1.33329V2.66663C24 3.03482 23.7015 3.33329 23.3333 3.33329ZM24 10.6668V9.33342C24 8.96523 23.7015 8.66675 23.3333 8.66675H0.666667C0.298477 8.66675 0 8.96523 0 9.33342V10.6668C0 11.0349 0.298477 11.3334 0.666667 11.3334H23.3333C23.7015 11.3334 24 11.0349 24 10.6668ZM24 17.3334V18.6667C24 19.0349 23.7015 19.3334 23.3333 19.3334H0.666667C0.298477 19.3334 0 19.0349 0 18.6667V17.3334C0 16.9652 0.298477 16.6667 0.666667 16.6667H23.3333C23.7015 16.6667 24 16.9652 24 17.3334Z" fill="#07484A"/>
</svg>
