<svg width="109" height="108" viewBox="0 0 109 108" fill="none" xmlns="http://www.w3.org/2000/svg">
<rect x="0.5" width="108" height="108" rx="24" fill="#EEEBFF"/>
<g clip-path="url(#clip0_1_32)">
<path d="M43.4168 72.0494C43.3995 71.9644 43.3743 71.8808 43.3411 71.7997C43.3079 71.7201 43.2667 71.643 43.2189 71.5713C43.1711 71.4983 43.1153 71.4305 43.0542 71.3694C42.9931 71.3083 42.9254 71.2526 42.8523 71.2047C42.7806 71.1569 42.7036 71.1158 42.6226 71.0826C42.5429 71.0494 42.4592 71.0228 42.3742 71.0069C42.2029 70.9723 42.0263 70.9723 41.8563 71.0069C41.7713 71.0228 41.6876 71.0494 41.6066 71.0826C41.5269 71.1158 41.4498 71.1569 41.3781 71.2047C41.3051 71.2526 41.2373 71.3083 41.1762 71.3694C41.1152 71.4305 41.0594 71.4983 41.0116 71.5713C40.9624 71.643 40.9226 71.7201 40.8894 71.7997C40.8562 71.8808 40.8296 71.9644 40.8137 72.0494C40.7964 72.1344 40.7871 72.2221 40.7871 72.3084C40.7871 72.3947 40.7964 72.4824 40.8137 72.5674C40.8296 72.6524 40.8562 72.7361 40.8894 72.8158C40.9226 72.8968 40.9624 72.9738 41.0116 73.0455C41.0594 73.1186 41.1152 73.1863 41.1762 73.2474C41.2373 73.3085 41.3051 73.3643 41.3781 73.4121C41.4498 73.46 41.5269 73.5012 41.6066 73.5344C41.6876 73.5676 41.7713 73.5942 41.8563 73.6101C41.9413 73.6274 42.0289 73.6367 42.1152 73.6367C42.2016 73.6367 42.2892 73.6274 42.3742 73.6101C42.4592 73.5942 42.5429 73.5676 42.6226 73.5344C42.7036 73.5012 42.7806 73.4599 42.8523 73.4121C42.9254 73.3643 42.9931 73.3085 43.0542 73.2474C43.1153 73.1863 43.1711 73.1186 43.2189 73.0455C43.2667 72.9738 43.3079 72.8968 43.3411 72.8158C43.3743 72.7361 43.3995 72.6524 43.4168 72.5674C43.4341 72.4824 43.4434 72.3947 43.4434 72.3084C43.4434 72.2221 43.4341 72.1344 43.4168 72.0494Z" fill="#70908B"/>
<path d="M81.5928 72.4586C81.5876 72.4454 81.5823 72.4322 81.5768 72.4192C80.3543 69.5588 77.4875 68.5016 74.0946 69.6604L64.8418 72.2192C64.3069 70.5991 62.9725 69.2205 61.0858 68.5204C61.0741 68.5161 61.0624 68.5119 61.0506 68.5079L50.8797 65.0558C50.0331 63.9616 47.3814 61.1616 42.4165 61.1616C38.9467 61.1616 35.8773 63.5419 34.1213 66.1364H21.8281C21.0946 66.1364 20.5 66.731 20.5 67.4645V84.2091C20.5 84.9426 21.0946 85.5372 21.8281 85.5372H29.7248C30.4583 85.5372 31.0529 84.9426 31.0529 84.2091V83.0624H34.7561C35.4896 83.0624 36.0842 82.4678 36.0842 81.7343V81.352C38.243 81.5404 38.953 81.9498 40.9356 83.0931C42.4603 83.9723 44.7647 85.3011 48.9146 87.167C48.9338 87.1756 48.9534 87.1838 48.9729 87.1915C49.7694 87.5048 51.3263 87.997 53.2459 87.997C54.5819 87.997 56.094 87.7584 57.6461 87.0549L78.098 79.7321C78.1344 79.7191 78.1702 79.7045 78.2053 79.6883C80.1599 78.789 83.0726 76.2546 81.5928 72.4586ZM28.3966 82.8808H23.1562V68.7925H28.3966V82.8808ZM33.428 80.406H31.0529V68.7925H33.428V80.406ZM77.144 77.2521L56.7012 84.5715C56.6833 84.5779 56.659 84.5875 56.6413 84.5946C56.6234 84.6019 56.6055 84.6097 56.5878 84.6178C53.7407 85.9262 51.0344 85.1429 49.9737 84.7305C45.9652 82.9268 43.8257 81.6931 42.2625 80.7917C40.0892 79.5385 39.042 78.9344 36.0842 78.6902V67.9932C37.3431 65.9299 39.7845 63.8177 42.4166 63.8177C46.9304 63.8177 48.843 66.7536 48.9182 66.872C49.0803 67.1358 49.3296 67.3346 49.6227 67.4341L60.178 71.0166C61.8638 71.6493 62.7547 73.093 62.3452 74.5326C62.1562 75.1975 61.7196 75.7489 61.1158 76.0854C60.5172 76.4188 59.8253 76.5013 59.1657 76.3188L47.2666 72.548C46.567 72.3264 45.8208 72.7136 45.5993 73.4129C45.3776 74.1122 45.7649 74.8586 46.4642 75.0802L58.384 78.8575C58.3966 78.8615 58.4092 78.8654 58.422 78.869C58.8978 79.0043 59.3823 79.0712 59.8639 79.0712C60.7455 79.0712 61.6174 78.8467 62.4087 78.4057C63.6323 77.724 64.5171 76.6065 64.9002 75.2591C64.9307 75.1515 64.9578 75.044 64.9813 74.9364L74.9533 72.1739C76.3935 71.682 78.2841 71.5047 79.1258 73.4433C79.9971 75.7193 77.7326 76.9713 77.144 77.2521Z" fill="#70908B"/>
<path d="M68.1877 37.4708C68.1704 37.3858 68.1452 37.3021 68.1106 37.2211C68.0774 37.1414 68.0376 37.0644 67.9884 36.9927C67.9406 36.9196 67.8848 36.8519 67.8238 36.7908C67.7627 36.7297 67.6949 36.6739 67.6219 36.6261C67.5502 36.5783 67.4731 36.5371 67.3934 36.5039C67.3124 36.4707 67.2287 36.4442 67.1451 36.4282C66.9737 36.3937 66.7971 36.3937 66.6258 36.4282C66.5408 36.4442 66.4571 36.4707 66.3774 36.5039C66.2964 36.5371 66.2194 36.5783 66.1477 36.6261C66.0746 36.6739 66.0069 36.7297 65.9458 36.7908C65.8847 36.8519 65.8289 36.9196 65.7811 36.9927C65.7333 37.0644 65.6921 37.1414 65.6589 37.2211C65.6257 37.3021 65.5991 37.3858 65.5832 37.4708C65.5659 37.5558 65.5566 37.6435 65.5566 37.7298C65.5566 37.8161 65.5659 37.9038 65.5832 37.9888C65.5991 38.0738 65.6257 38.1575 65.6589 38.2371C65.6921 38.3182 65.7333 38.3952 65.7811 38.4669C65.8289 38.54 65.8847 38.6077 65.9458 38.6688C66.0069 38.7299 66.0746 38.7857 66.1477 38.8335C66.2194 38.8813 66.2964 38.9225 66.3774 38.9557C66.4571 38.9889 66.5408 39.0141 66.6258 39.0314C66.7108 39.0486 66.7984 39.0579 66.8848 39.0579C66.9711 39.0579 67.0587 39.0486 67.1451 39.0314C67.2287 39.0141 67.3124 38.9889 67.3934 38.9557C67.4731 38.9225 67.5502 38.8813 67.6219 38.8335C67.6949 38.7857 67.7627 38.7299 67.8238 38.6688C67.8848 38.6077 67.9406 38.54 67.9884 38.4669C68.0376 38.3952 68.0774 38.3182 68.1106 38.2371C68.1452 38.1575 68.1704 38.0738 68.1877 37.9888C68.2049 37.9038 68.2129 37.8161 68.2129 37.7298C68.2129 37.6435 68.2049 37.5558 68.1877 37.4708Z" fill="#70908B"/>
<path d="M87.1719 24.501H79.2752C78.5417 24.501 77.9471 25.0956 77.9471 25.8291V26.9758H74.2439C73.5104 26.9758 72.9158 27.5704 72.9158 28.3039V28.6862C70.757 28.4977 70.047 28.0884 68.0645 26.9451C66.5398 26.0659 64.2354 24.7371 60.0854 22.8712C60.0662 22.8625 60.0468 22.8544 60.027 22.8467C58.6762 22.3152 55.1358 21.2694 51.3545 22.9831L46.0101 24.8966L41.5052 20.3919C40.9866 19.8733 40.1456 19.8733 39.627 20.3919L24.8373 35.1815C24.3589 35.66 24.2671 36.4897 24.8373 37.0599L50.1097 62.3324C50.5142 62.7369 51.4611 62.8592 51.9881 62.3324L65.4905 48.8301C65.8415 48.8604 66.2058 48.8767 66.5834 48.8767C70.0533 48.8767 73.1226 46.4965 74.8785 43.9021H87.1719C87.9054 43.9021 88.5 43.3075 88.5 42.574V25.8291C88.5 25.0956 87.9054 24.501 87.1719 24.501ZM40.566 23.2093L43.593 26.2363C42.6932 26.7928 41.6529 27.0906 40.566 27.0906C39.4789 27.0906 38.4387 26.7929 37.5389 26.2363L40.566 23.2093ZM30.6818 39.1478L27.6547 36.1206L30.6818 33.0936C31.2383 33.9934 31.5361 35.0337 31.5361 36.1206C31.5361 37.2076 31.2384 38.2479 30.6818 39.1478ZM51.049 59.5149L48.0225 56.4883C49.8703 55.348 52.2274 55.348 54.0754 56.4883L51.049 59.5149ZM55.989 54.575C53.0541 52.4461 49.0439 52.4461 46.109 54.575L32.5952 41.0611C33.6324 39.6347 34.1923 37.9213 34.1923 36.1206C34.1923 34.3198 33.6325 32.6065 32.5952 31.1801L35.6256 28.1499C37.052 29.187 38.7653 29.747 40.5661 29.747C42.3669 29.747 44.0802 29.187 45.5066 28.1499L48.3792 31.0225C47.7594 31.114 47.1549 31.3183 46.5913 31.6324C45.6393 32.1628 44.8923 32.9572 44.4272 33.9182C42.9291 34.1956 41.5421 34.9209 40.4541 36.0088C37.5024 38.9607 37.5024 43.7636 40.4543 46.7155C41.9301 48.1913 43.8688 48.9293 45.8076 48.9293C47.7462 48.9293 49.685 48.1914 51.161 46.7155C52.1212 45.7552 52.7939 44.5751 53.1308 43.2889L57.6151 44.8108C57.1103 47.1494 57.6273 49.6096 59.022 51.542L55.989 54.575ZM47.9142 41.5179C47.9259 41.5221 47.9376 41.5264 47.9494 41.5303L50.6051 42.4317C50.4046 43.3369 49.9508 44.1691 49.2827 44.8372C47.3665 46.7532 44.2486 46.7535 42.3326 44.8372C40.4164 42.9212 40.4164 39.8034 42.3326 37.8872C42.7948 37.4247 43.3403 37.0633 43.9346 36.8183C44.1798 38.8586 45.6488 40.6772 47.9142 41.5179ZM60.9357 49.6282C60.423 48.7928 60.133 47.8393 60.0872 46.8662C60.7233 47.3261 61.5008 47.7768 62.4294 48.1344L60.9357 49.6282ZM72.9156 42.0445C71.6568 44.1081 69.2155 46.2202 66.5834 46.2202C66.0909 46.2202 65.6294 46.1852 65.1979 46.1227C65.1962 46.1225 65.1945 46.1222 65.1927 46.1219C62.3245 45.7053 60.7816 44.0752 60.2731 43.4297C60.246 43.3898 60.1306 43.2388 60.1134 43.2137C59.9587 42.9372 59.7051 42.7149 59.3815 42.6051L48.8219 39.0211C47.1367 38.3887 46.246 36.9457 46.6542 35.5065C46.6545 35.5056 46.6548 35.5046 46.655 35.5037C46.6554 35.5026 46.6557 35.5014 46.656 35.5004C46.8457 34.8377 47.2816 34.2879 47.8841 33.9523C48.4825 33.6188 49.1743 33.5361 49.8342 33.719L61.7332 37.4897C62.4326 37.7116 63.179 37.324 63.4006 36.6248C63.6221 35.9255 63.2349 35.1791 62.5357 34.9574L53.0721 31.9585L52.9895 31.8759C52.9887 31.8751 52.9879 31.8742 52.987 31.8734L48.0875 26.974L52.2988 25.466C52.313 25.4608 52.3305 25.4543 52.3446 25.4486C52.3482 25.4471 52.3551 25.4445 52.3585 25.443C52.3766 25.4357 52.3944 25.428 52.4121 25.4199C55.259 24.1115 57.9652 24.8946 59.026 25.3072C63.0347 27.1109 65.1743 28.3446 66.7375 29.246C68.9108 30.4993 69.958 31.1032 72.9156 31.3475V42.0445ZM77.9471 41.2456H75.572V29.6321H77.9471V41.2456ZM85.8437 41.2456H80.6034V27.1572H85.8437V41.2456Z" fill="#70908B"/>
</g>
<defs>
<clipPath id="clip0_1_32">
<rect width="68" height="68" fill="white" transform="translate(20.5 20)"/>
</clipPath>
</defs>
</svg>
