<svg width="21" height="21" viewBox="0 0 21 21" fill="none" xmlns="http://www.w3.org/2000/svg">
<path fill-rule="evenodd" clip-rule="evenodd" d="M10.625 0.0240784C4.89505 0.0240784 0.25 4.66912 0.25 10.3991C0.25 16.129 4.89505 20.7741 10.625 20.7741C16.355 20.7741 21 16.129 21 10.3991C21 7.64746 19.9069 5.00854 17.9612 3.06285C16.0155 1.11716 13.3766 0.0240784 10.625 0.0240784ZM10.6251 3.1365C12.3441 3.1365 13.7376 4.53001 13.7376 6.249C13.7376 7.96799 12.3441 9.3615 10.6251 9.3615C8.90609 9.3615 7.51258 7.96799 7.51258 6.249C7.51258 4.53001 8.90609 3.1365 10.6251 3.1365ZM10.6246 17.6479C12.9228 17.6479 15.0853 16.5602 16.4554 14.7151C16.6677 14.4048 16.6955 14.0039 16.528 13.6672L16.2894 13.1796C15.7673 12.1142 14.685 11.4382 13.4985 11.4366H7.75077C6.54739 11.4379 5.45258 12.1328 4.93914 13.2211L4.72127 13.6776C4.55787 14.0115 4.58558 14.4073 4.79389 14.7151C6.16398 16.5602 8.3265 17.6479 10.6246 17.6479Z" fill="#07484A"/>
</svg>
