<svg width="109" height="108" viewBox="0 0 109 108" fill="none" xmlns="http://www.w3.org/2000/svg">
<rect x="0.65564" y="0.155762" width="107.689" height="107.689" rx="24" fill="#FFF4E7"/>
<path d="M87.6585 34.7947L61.2961 20.3188C60.9 20.1014 60.4197 20.1014 60.0236 20.3188L50.0871 25.7748C49.8774 25.8301 49.6817 25.9355 49.5196 26.0868L33.6617 34.7947C33.2388 35.0266 32.9759 35.4707 32.9759 35.9536V53.4614C30.3008 54.298 27.8494 55.7734 25.811 57.8123C20.4981 63.1247 19.1435 71.2274 22.4403 77.9745C22.7605 78.6303 23.5522 78.9025 24.2081 78.5818C24.8644 78.2611 25.1361 77.4694 24.8159 76.8136C22.0148 71.0807 23.1659 64.1963 27.6805 59.6817C30.5038 56.8584 34.2572 55.3035 38.2496 55.3035C42.2421 55.3035 45.9955 56.8584 48.8188 59.6817C51.6415 62.5045 53.1965 66.2579 53.1965 70.2503C53.1965 74.2428 51.6415 77.9962 48.8182 80.8195C44.3037 85.334 37.4192 86.4852 31.6864 83.6841C31.0305 83.3634 30.2389 83.6355 29.9187 84.2914C29.598 84.9478 29.8696 85.7394 30.526 86.0596C32.9837 87.2608 35.6205 87.8444 38.2383 87.8444C42.805 87.8439 47.3108 86.0663 50.6882 82.6889C52.237 81.1402 53.4609 79.3533 54.3269 77.4111L60.0236 80.539C60.2219 80.648 60.4409 80.7022 60.6599 80.7022C60.8788 80.7022 61.0983 80.648 61.2961 80.539L87.6585 66.0637C88.0815 65.8313 88.3443 65.3872 88.3443 64.9048V55.7171C88.3443 54.9869 87.7525 54.3951 87.0223 54.3951C86.292 54.3951 85.7002 54.9869 85.7002 55.7171V64.1224L61.986 77.1441V51.2093L69.8124 46.9116V53.7242C69.8124 54.1921 70.0593 54.6249 70.4616 54.8624C70.6692 54.9848 70.9016 55.0463 71.1345 55.0463C71.3534 55.0463 71.5729 54.9921 71.7717 54.8826L77.4209 51.7732C77.8433 51.5408 78.1052 51.0972 78.1052 50.6154V42.3577L85.7002 38.1876V45.1413C85.7002 45.8715 86.292 46.4633 87.0223 46.4633C87.7525 46.4633 88.3443 45.8715 88.3443 45.1413V35.9536C88.3443 35.4712 88.0815 35.0266 87.6585 34.7947ZM60.6599 22.9856L84.2754 35.9536L76.826 40.0442L53.2104 27.0762L60.6599 22.9856ZM60.6599 48.921L37.0443 35.9536L44.7669 31.7127L68.383 44.6801L60.6599 48.921ZM71.1293 43.1721L47.5138 30.2047L50.4636 28.5847L74.0796 41.5521L71.1293 43.1721ZM50.6882 57.8123C47.3655 54.4896 42.9481 52.6599 38.2496 52.6599C37.3609 52.6599 36.4829 52.7255 35.62 52.8541V38.1876L59.3425 51.2139V77.1487L55.225 74.8878C55.6304 73.3954 55.8401 71.8388 55.8401 70.2503C55.8401 65.5519 54.0104 61.1344 50.6882 57.8123ZM75.4616 49.834L72.4565 51.4881V45.4599L75.4616 43.8099V49.834Z" fill="#70908B"/>
<path d="M87.0223 49.1006C86.6747 49.1006 86.3334 49.2421 86.0876 49.4879C85.8418 49.7337 85.7003 50.0746 85.7003 50.4226C85.7003 50.7702 85.8418 51.111 86.0876 51.3568C86.3334 51.6032 86.6747 51.7442 87.0223 51.7442C87.3699 51.7442 87.7112 51.6032 87.957 51.3568C88.2028 51.111 88.3443 50.7702 88.3443 50.4226C88.3443 50.0746 88.2028 49.7337 87.957 49.4879C87.7112 49.2421 87.3699 49.1006 87.0223 49.1006Z" fill="#70908B"/>
<path d="M33.8043 71.5725C34.1425 71.5725 34.4813 71.4434 34.739 71.1857C35.2554 70.6693 35.2554 69.8322 34.739 69.3158L33.8234 68.3996H41.6369C43.5321 68.3996 45.0742 69.9417 45.0742 71.8369C45.0742 73.7322 43.5321 75.2743 41.6369 75.2743H37.0071C36.2769 75.2743 35.6851 75.8661 35.6851 76.5963C35.6851 77.326 36.2769 77.9178 37.0071 77.9178H41.6369C44.99 77.9178 47.7183 75.1901 47.7183 71.8369C47.7183 68.4838 44.99 65.756 41.6369 65.756H33.8234L34.739 64.8399C35.2554 64.3235 35.2554 63.4864 34.739 62.9699C34.2231 62.454 33.386 62.454 32.8695 62.9699L29.6966 66.1428C29.1807 66.6593 29.1807 67.4964 29.6966 68.0128L32.8695 71.1852C33.1277 71.4434 33.466 71.5725 33.8043 71.5725Z" fill="#70908B"/>
<path d="M26.7468 83.078C26.3708 83.078 25.9974 82.9179 25.7366 82.6076L25.7341 82.6045C25.2641 82.0457 25.3364 81.2122 25.8952 80.7422C26.4539 80.2718 27.288 80.3441 27.7579 80.9028C28.2273 81.4621 28.1566 82.2972 27.5978 82.7671C27.3494 82.9758 27.0473 83.078 26.7468 83.078Z" fill="#70908B"/>
</svg>
