<svg width="22" height="22" viewBox="0 0 22 22" fill="none" xmlns="http://www.w3.org/2000/svg">
<path fill-rule="evenodd" clip-rule="evenodd" d="M16.7607 15.1378L21.5482 19.9312C21.762 20.169 21.7515 20.533 21.5243 20.758L20.6865 21.5968C20.5741 21.7103 20.4211 21.7741 20.2616 21.7741C20.102 21.7741 19.949 21.7103 19.8367 21.5968L15.0491 16.8035C14.9167 16.6708 14.7965 16.5264 14.69 16.3721L13.7924 15.1738C12.3071 16.3612 10.4627 17.0078 8.56196 17.0072C4.64527 17.0208 1.24181 14.3158 0.366529 10.4935C-0.508749 6.67123 1.37775 2.75187 4.90917 1.05579C8.44059 -0.640287 12.6744 0.339572 15.1042 3.41526C17.5339 6.49096 17.511 10.8416 15.0491 13.8916L16.246 14.7184C16.4329 14.8382 16.6056 14.9789 16.7607 15.1378ZM2.57727 8.61886C2.57727 11.928 5.2566 14.6105 8.56172 14.6105C10.1489 14.6105 11.6711 13.9793 12.7934 12.8556C13.9157 11.732 14.5462 10.2079 14.5462 8.61886C14.5462 5.30976 11.8668 2.62719 8.56172 2.62719C5.2566 2.62719 2.57727 5.30976 2.57727 8.61886Z" fill="#07484A"/>
</svg>
